<?xml version="1.0" encoding="utf-8"?>
<!-- Generator: Adobe Illustrator 16.0.0, SVG Export Plug-In . SVG Version: 6.00 Build 0)  -->
<!DOCTYPE svg PUBLIC "-//W3C//DTD SVG 1.1//EN" "http://www.w3.org/Graphics/SVG/1.1/DTD/svg11.dtd">
<svg version="1.1" xmlns="http://www.w3.org/2000/svg" xmlns:xlink="http://www.w3.org/1999/xlink" x="0px" y="0px" width="64px"
	 height="64px" viewBox="0 0 64 64" enable-background="new 0 0 64 64" xml:space="preserve">
<g id="_x32_5_code_x2C__program_x2C__programming_x2C__develop_x2C__bug_x2C__search_x2C__developer">
	<g>
		<g>
			<path fill="#CCD1D9" d="M61.3,54.188l-9.9-9.9l-2.121,2.123l9.905,9.906c1.587,1.586,2.537,1.586,3.122,1
				c0.587-0.586,0.587-1.537,0.002-2.121C62.306,55.191,62.302,55.189,61.3,54.188z"/>
		</g>
		<path fill="#656D78" d="M55.646,47.121l-3.535,3.535l7.366,7.367c0.975,0.977,2.561,0.977,3.535,0
			c0.977-0.975,0.977-2.561,0.002-3.537L55.646,47.121z"/>
		<g>
			<g>
				<path fill="#656D78" d="M53.258,43.744c0.001,0.275-0.224,0.5-0.5,0.5H0.755c-0.274,0-0.499-0.225-0.5-0.5l0.001-37
					c-0.001-0.275,0.224-0.5,0.5-0.5h52.003c0.274,0,0.499,0.225,0.5,0.5L53.258,43.744z"/>
			</g>
			<path fill="#E6E9ED" d="M0.259,7.244V43.76c0.007,0.268,0.226,0.484,0.496,0.484h1.503v-37H0.259z"/>
			<g>
				<path fill="#CCD1D9" d="M0.758,26.246c0.001-0.277-0.224-0.5-0.5-0.5v1C0.535,26.746,0.759,26.521,0.758,26.246z"/>
				<path fill="#CCD1D9" d="M0.759,29.246c0-0.277-0.225-0.5-0.5-0.5v1C0.535,29.746,0.758,29.521,0.759,29.246z"/>
				<path fill="#CCD1D9" d="M0.759,32.246c-0.001-0.277-0.225-0.5-0.5-0.5v1C0.534,32.746,0.758,32.521,0.759,32.246z"/>
				<path fill="#CCD1D9" d="M0.758,35.246c0-0.277-0.223-0.5-0.499-0.5l-0.001,1C0.534,35.746,0.758,35.521,0.758,35.246z"/>
				<path fill="#CCD1D9" d="M0.758,38.246c0-0.277-0.224-0.5-0.5-0.5v1C0.534,38.746,0.759,38.521,0.758,38.246z"/>
				<path fill="#CCD1D9" d="M0.759,41.246c0-0.277-0.224-0.5-0.5-0.5v1C0.534,41.746,0.759,41.521,0.759,41.246z"/>
				<path fill="#CCD1D9" d="M0.758,23.246c0-0.277-0.224-0.5-0.5-0.5v1C0.534,23.746,0.759,23.521,0.758,23.246z"/>
				<path fill="#CCD1D9" d="M0.759,20.246c-0.001-0.277-0.225-0.5-0.5-0.5l-0.001,1C0.535,20.746,0.758,20.521,0.759,20.246z"/>
				<path fill="#CCD1D9" d="M0.759,17.246c0-0.277-0.224-0.5-0.5-0.5v1C0.535,17.746,0.758,17.521,0.759,17.246z"/>
				<path fill="#CCD1D9" d="M0.759,14.246c0-0.277-0.224-0.5-0.501-0.5l0.001,1C0.534,14.746,0.759,14.521,0.759,14.246z"/>
				<path fill="#CCD1D9" d="M0.758,11.246c0-0.277-0.224-0.5-0.5-0.5v1C0.534,11.746,0.759,11.521,0.758,11.246z"/>
			</g>
			<g>
				<path fill="#CCD1D9" d="M53.259,7.244H2.257h-2v-1c0-0.549,0.45-1,1-1h51.001c0.55,0,1.001,0.451,1.001,1V7.244z"/>
			</g>
			<g>
				<path fill="#E6E9ED" d="M1.763,6.744c-0.275,0-0.505-0.223-0.504-0.5c0-0.275,0.219-0.5,0.493-0.5h0.011
					c0.275,0,0.5,0.225,0.5,0.5C2.263,6.521,2.038,6.744,1.763,6.744z"/>
			</g>
			<g>
				<path fill="#E6E9ED" d="M3.763,6.744c-0.276,0-0.505-0.223-0.505-0.5c0-0.275,0.22-0.5,0.494-0.5h0.011
					c0.275,0,0.5,0.225,0.5,0.5C4.263,6.521,4.038,6.744,3.763,6.744z"/>
			</g>
			<g>
				<path fill="#E6E9ED" d="M5.763,6.744c-0.276,0-0.504-0.223-0.504-0.5c-0.001-0.275,0.218-0.5,0.493-0.5h0.011
					c0.275,0,0.5,0.225,0.5,0.5C6.263,6.521,6.038,6.744,5.763,6.744z"/>
			</g>
			<g>
				<path fill="#FFCE54" d="M9.258,11.744H5.257c-0.276,0-0.5-0.223-0.5-0.5c0-0.275,0.224-0.5,0.5-0.498l4.001-0.002
					c0.276,0,0.499,0.225,0.5,0.5C9.758,11.521,9.534,11.744,9.258,11.744z"/>
			</g>
			<g>
				<path fill="#A0D468" d="M26.257,14.744h-13c-0.276,0-0.5-0.223-0.5-0.5c0-0.275,0.224-0.5,0.5-0.5h13c0.276,0,0.5,0.225,0.5,0.5
					C26.757,14.521,26.534,14.744,26.257,14.744z"/>
			</g>
			<g>
				<path fill="#A0D468" d="M11.257,14.744h-5c-0.276,0-0.5-0.223-0.5-0.5c0-0.275,0.224-0.5,0.5-0.5h5c0.276,0,0.5,0.225,0.5,0.5
					C11.757,14.521,11.533,14.744,11.257,14.744z"/>
			</g>
			<g>
				<path fill="#FC6E51" d="M23.257,17.744h-16c-0.276,0-0.5-0.223-0.5-0.5c0-0.275,0.224-0.5,0.5-0.5h16
					c0.276,0,0.501,0.225,0.5,0.5C23.757,17.521,23.533,17.744,23.257,17.744z"/>
			</g>
			<g>
				<path fill="#FFCE54" d="M10.258,23.744h-3c-0.277,0-0.501-0.223-0.5-0.5c-0.001-0.275,0.223-0.5,0.5-0.5h3
					c0.275,0,0.5,0.225,0.5,0.5C10.758,23.521,10.533,23.744,10.258,23.744z"/>
			</g>
			<g>
				<path fill="#FFCE54" d="M26.097,23.744h-13.84c-0.275,0-0.5-0.223-0.5-0.5c0-0.275,0.225-0.5,0.5-0.5h13.84
					c0.276,0,0.5,0.225,0.5,0.5C26.597,23.521,26.373,23.744,26.097,23.744z"/>
			</g>
			<g>
				<path fill="#FFCE54" d="M10.258,35.744h-3c-0.277,0-0.501-0.223-0.5-0.5c-0.001-0.275,0.223-0.5,0.5-0.5h3
					c0.275,0,0.499,0.225,0.499,0.5C10.758,35.521,10.533,35.744,10.258,35.744z"/>
			</g>
			<g>
				<path fill="#FFCE54" d="M21.092,35.744h-8.835c-0.275,0-0.5-0.223-0.5-0.5c0-0.275,0.225-0.5,0.5-0.5h8.835
					c0.276,0,0.501,0.225,0.5,0.5C21.593,35.521,21.368,35.744,21.092,35.744z"/>
			</g>
			<g>
				<path fill="#4FC1E9" d="M29.256,20.744H7.257c-0.276,0-0.501-0.223-0.5-0.5c-0.001-0.275,0.224-0.5,0.499-0.5h22
					c0.276,0,0.5,0.225,0.5,0.5C29.756,20.521,29.533,20.744,29.256,20.744z"/>
			</g>
			<g>
				<path fill="#AC92EC" d="M22.257,29.744h-16c-0.276,0-0.5-0.223-0.5-0.5c0-0.273,0.224-0.5,0.5-0.5h16
					c0.276,0,0.501,0.225,0.5,0.5C22.758,29.521,22.533,29.744,22.257,29.744z"/>
			</g>
			<g>
				<path fill="#AC92EC" d="M17.258,38.744H6.257c-0.276,0-0.5-0.223-0.5-0.5c0-0.275,0.224-0.5,0.5-0.5h11
					c0.276,0,0.5,0.225,0.5,0.5C17.757,38.521,17.533,38.744,17.258,38.744z"/>
			</g>
			<g>
				<path fill="#FC6E51" d="M17.257,32.744h-10c-0.276,0-0.5-0.223-0.5-0.5c0-0.275,0.224-0.5,0.5-0.5h10c0.276,0,0.5,0.225,0.5,0.5
					C17.757,32.521,17.533,32.744,17.257,32.744z"/>
			</g>
			<g>
				<path fill="#FFCE54" d="M9.257,41.744h-4c-0.275,0-0.5-0.223-0.5-0.5c0-0.275,0.225-0.5,0.5-0.5h4c0.276,0,0.501,0.225,0.5,0.5
					C9.758,41.521,9.533,41.744,9.257,41.744z"/>
			</g>
			<g>
				<path fill="#A0D468" d="M17.256,26.744H6.257c-0.277,0-0.5-0.223-0.5-0.5c0-0.275,0.223-0.5,0.5-0.5h11
					c0.276,0,0.5,0.225,0.5,0.5C17.757,26.521,17.533,26.744,17.256,26.744z"/>
			</g>
			<g>
				<path fill="#FC6E51" d="M38.257,17.746h-13c-0.275,0-0.5-0.225-0.5-0.5c0-0.277,0.225-0.5,0.5-0.5h13c0.276,0,0.5,0.223,0.5,0.5
					C38.757,17.521,38.533,17.746,38.257,17.746z"/>
			</g>
		</g>
		<g>
			<path fill="#E6E9ED" d="M40.734,51.244c-4.141,0-8.034-1.611-10.962-4.541c-6.041-6.045-6.041-15.879,0.001-21.922
				c2.928-2.928,6.819-4.539,10.961-4.539c4.139,0,8.031,1.611,10.959,4.539c6.042,6.043,6.041,15.879,0,21.922
				C48.766,49.631,44.875,51.244,40.734,51.244z"/>
		</g>
		<g>
			<circle fill="#5D9CEC" cx="40.762" cy="35.742" r="14"/>
		</g>
		<g>
			<path fill="#656D78" d="M41.763,31.242c-0.129,0-0.257-0.049-0.354-0.146c-0.196-0.195-0.196-0.512,0-0.707l1.999-2
				c0.195-0.195,0.512-0.195,0.707,0c0.196,0.195,0.196,0.512,0,0.707l-1.999,2C42.018,31.193,41.89,31.242,41.763,31.242z"/>
		</g>
		<g>
			<path fill="#656D78" d="M39.762,31.242c-0.128,0-0.256-0.049-0.354-0.146l-2-1.998c-0.195-0.197-0.194-0.514,0-0.707
				c0.195-0.197,0.512-0.197,0.707,0l2,1.998c0.195,0.195,0.195,0.512,0,0.707C40.018,31.193,39.89,31.242,39.762,31.242z"/>
		</g>
		<g>
			<path fill="#656D78" d="M45.761,37.242h-1c-0.276,0-0.5-0.225-0.5-0.5c0-0.277,0.224-0.5,0.5-0.5h1c0.276,0,0.5,0.223,0.5,0.5
				C46.261,37.018,46.037,37.242,45.761,37.242z"/>
		</g>
		<g>
			<path fill="#656D78" d="M44.765,35.242c-0.014,0-0.026,0-0.035-0.002c-0.275-0.016-0.485-0.254-0.467-0.529
				c0.015-0.25,0.214-0.447,0.457-0.467c0.068-0.041,0.542-0.414,0.541-2.502c0-0.275,0.224-0.5,0.5-0.5s0.5,0.225,0.5,0.5
				c0,1.615-0.273,2.689-0.813,3.197C45.161,35.209,44.882,35.242,44.765,35.242z"/>
		</g>
		<g>
			<path fill="#656D78" d="M45.761,42.24c-0.276,0-0.499-0.223-0.5-0.5c0-2.234-0.543-2.502-0.55-2.504
				c-0.28-0.01-0.472-0.189-0.489-0.467c-0.018-0.275,0.233-0.51,0.508-0.527c0.08-0.012,0.396,0,0.719,0.303
				c0.539,0.506,0.813,1.582,0.813,3.195C46.262,42.018,46.038,42.242,45.761,42.24z"/>
		</g>
		<g>
			<path fill="#656D78" d="M36.764,37.242h-1c-0.276,0-0.5-0.223-0.5-0.5c0-0.275,0.224-0.5,0.5-0.5h1c0.275,0,0.5,0.225,0.5,0.5
				C37.264,37.02,37.039,37.242,36.764,37.242z"/>
		</g>
		<g>
			<path fill="#656D78" d="M35.763,42.242c-0.276,0-0.5-0.223-0.5-0.5c-0.001-1.613,0.272-2.689,0.813-3.195
				c0.32-0.303,0.633-0.314,0.719-0.305c0.276,0.02,0.485,0.256,0.468,0.531c-0.016,0.252-0.213,0.447-0.458,0.467
				c-0.067,0.043-0.542,0.414-0.541,2.502C36.263,42.02,36.039,42.242,35.763,42.242z"/>
		</g>
		<g>
			<path fill="#656D78" d="M36.759,35.244c-0.118,0-0.396-0.033-0.685-0.305c-0.539-0.504-0.813-1.58-0.813-3.197
				c0-0.275,0.224-0.498,0.501-0.498c0.276,0,0.499,0.223,0.5,0.5c-0.001,2.236,0.543,2.502,0.549,2.506
				c0.261,0,0.473,0.189,0.489,0.465c0.019,0.275-0.232,0.51-0.507,0.527C36.784,35.244,36.772,35.244,36.759,35.244z"/>
		</g>
		<rect x="36.812" y="34.25" fill="#656D78" width="7.953" height="0.992"/>
		<rect x="36.794" y="38.242" fill="#656D78" width="7.917" height="0.994"/>
		<g>
			<ellipse fill="#A0D468" cx="40.762" cy="36.742" rx="4" ry="5"/>
		</g>
		<path fill="#8CC152" d="M41.263,41.68l-0.001-5.438h3.46c-0.028-0.346-0.082-0.678-0.163-1h-7.593
			c-0.082,0.322-0.136,0.654-0.164,1h3.46l0.001,5.438c0.165,0.025,0.329,0.063,0.5,0.063S41.097,41.705,41.263,41.68z"/>
	</g>
</g>
<g id="_x32_4_writer_x2C__test_x2C__article_x2C__typewriter_x2C__paper_x2C__seo_x2C__promotion">
</g>
<g id="_x32_3_lead_x2C__money_x2C__coin_x2C__seo_x2C__promotion_x2C__monetization_x2C__money">
</g>
<g id="_x32_2_earth_x2C__planet_x2C__space_x2C__network_x2C__internet_x2C__communication">
</g>
<g id="_x32_1_site_x2C__seo_x2C__promotion_x2C__marketing_x2C__web">
</g>
<g id="_x32_0_search_x2C__head_x2C__seo_x2C__black_x2C__white_x2C__specialist_x2C__promotion">
</g>
<g id="_x31_9_data_x2C__repository_x2C__folder_x2C__file_x2C__cloud_x2C__server_x2C__seo">
</g>
<g id="_x31_8_women_x2C__name_x2C__site_x2C__seo_x2C__promotion_x2C__marketing_x2C__search">
</g>
<g id="_x31_7_data_x2C__repository_x2C__folder_x2C__file_x2C__seo_x2C__promotion_x2C__marketing">
</g>
<g id="_x31_6_hosting_x2C__site_x2C__server_x2C__data_x2C__seo_x2C__promotion_x2C__marketing">
</g>
<g id="_x31_5_fire_x2C__wall_x2C__protection_x2C__antivirus_x2C__site_x2C__seo">
</g>
<g id="_x31_4_pyramid_x2C__link_x2C__url_x2C__seo_x2C__promotion_x2C__marketin">
</g>
<g id="_x31_3_magnifier_x2C__search_x2C__organic_x2C__seo_x2C__promotion_x2C__marketing">
</g>
<g id="_x31_2_link_x2C__url_x2C__build_x2C__plus_x2C__seo_x2C__promotion_x2C__organic">
</g>
<g id="_x31_1_link_x2C__url_x2C__build_x2C__plus_x2C__seo_x2C__promotion_x2C__marketing">
</g>
<g id="_x31_0_sharing_x2C__share_x2C__file_x2C__music_x2C__video_x2C__picture_x2C__photo">
</g>
<g id="_x39__seo_x2C__promotion_x2C__marketing_x2C__site_x2C__optimization_x2C__pocket">
</g>
<g id="_x38__tag_x2C__seo_x2C__promotion_x2C__marketing_x2C__site_x2C__optimization">
</g>
<g id="_x37__magnifier_x2C__search_x2C__key_x2C__word_x2C__seo_x2C__promotion_x2C__marketing">
</g>
<g id="_x36__horn_x2C__marketing_x2C__promotion_x2C__social_x2C__network_x2C__smm">
</g>
<g id="_x35__mail_x2C__letter_x2C__horn_x2C__envelope_x2C__marketing_x2C__promotion">
</g>
<g id="_x34__news_x2C__press_x2C__release_x2C__marketing_x2C__promotion_x2C__seo_x2C__horn">
</g>
<g id="_x33__key_x2C__word_x2C__generator_x2C__seo_x2C__site_x2C__marketing_x2C__business">
</g>
<g id="_x32__user_x2C__target_x2C__job_x2C__head_x2C__headhunter_x2C__auditory">
</g>
<g id="_x31__site_x2C__seo_x2C__marketing_x2C__target_x2C__arrow_x2C__business">
</g>
</svg>
